<?xml version="1.0" standalone="no"?>
<!DOCTYPE svg PUBLIC "-//W3C//DTD SVG 20010904//EN"
 "http://www.w3.org/TR/2001/REC-SVG-20010904/DTD/svg10.dtd">
<svg version="1.0" xmlns="http://www.w3.org/2000/svg"
 width="800.000000pt" height="800.000000pt" viewBox="0 0 800.000000 800.000000"
 preserveAspectRatio="xMidYMid meet">
<metadata>
Created by potrace 1.14, written by Peter Selinger 2001-2017
</metadata>
<g transform="translate(0.000000,800.000000) scale(0.100000,-0.100000)"
fill="#000000" stroke="none">
<path d="M3759 7996 c-2 -2 -44 -7 -94 -10 -49 -4 -103 -9 -120 -11 -16 -2
-49 -7 -71 -9 -40 -5 -228 -35 -249 -40 -5 -1 -37 -8 -70 -15 -627 -133 -1226
-428 -1735 -854 -101 -85 -372 -353 -455 -451 -320 -376 -556 -780 -725 -1241
-77 -208 -155 -505 -185 -705 -4 -25 -9 -54 -11 -65 -26 -139 -39 -333 -39
-595 0 -250 6 -357 29 -522 29 -202 42 -273 87 -453 148 -597 440 -1162 848
-1635 60 -70 344 -357 401 -405 381 -322 732 -536 1165 -707 297 -119 674
-216 940 -243 32 -3 127 -15 165 -21 84 -12 590 -11 715 2 177 17 352 42 420
58 6 1 37 8 70 15 222 47 599 167 714 227 14 8 30 14 34 14 17 0 265 125 388
196 204 116 484 309 559 384 3 3 32 27 65 55 98 80 344 328 441 442 316 376
543 764 708 1212 86 231 158 505 191 721 4 25 9 54 11 65 26 140 39 334 39
600 0 251 -6 351 -30 519 -21 148 -25 173 -42 256 -8 41 -17 84 -19 95 -27
145 -124 452 -201 640 -48 116 -153 336 -201 420 -16 28 -39 68 -52 90 -95
169 -289 438 -440 610 -68 78 -322 331 -386 385 -37 30 -71 60 -78 65 -6 6
-58 47 -116 91 -407 312 -876 546 -1360 679 -93 26 -341 81 -410 91 -19 3 -60
9 -90 14 -30 5 -86 12 -125 16 -38 4 -81 8 -95 11 -31 5 -586 13 -591 9z m566
-230 c17 -3 64 -8 105 -12 41 -3 77 -8 80 -9 3 -2 33 -6 65 -10 33 -3 68 -9
77 -11 10 -3 30 -7 45 -10 340 -56 791 -218 1129 -404 211 -117 505 -324 679
-479 53 -48 259 -253 316 -316 66 -73 197 -239 277 -352 228 -323 424 -735
537 -1128 28 -98 73 -289 81 -345 3 -19 9 -57 14 -85 5 -27 12 -75 16 -105 3
-30 8 -66 9 -80 26 -194 26 -672 -1 -859 -88 -628 -235 -1042 -559 -1579 -6
-9 -31 -48 -57 -87 -282 -417 -631 -764 -1048 -1042 -258 -172 -500 -293 -860
-428 -121 -45 -460 -131 -590 -149 -25 -4 -54 -8 -65 -10 -11 -2 -45 -7 -75
-11 -30 -4 -66 -9 -80 -11 -120 -19 -570 -26 -729 -11 -151 14 -359 44 -441
63 -14 3 -36 8 -50 11 -14 2 -61 13 -105 24 -44 12 -88 22 -97 24 -125 25
-495 168 -693 268 -168 85 -417 235 -505 304 -8 6 -62 48 -119 92 -144 111
-208 167 -341 301 -155 155 -193 198 -338 380 -220 275 -454 711 -575 1070
-59 172 -127 431 -143 540 -3 19 -9 58 -14 85 -5 28 -12 75 -16 105 -3 30 -8
66 -9 80 -33 241 -25 713 15 960 5 30 12 75 15 100 8 61 71 338 89 392 8 24
24 77 36 118 53 179 178 469 294 680 53 96 239 388 255 400 4 3 18 21 31 40
14 19 32 44 41 55 9 11 52 63 95 115 42 52 143 160 223 240 385 382 835 671
1341 861 191 72 526 162 685 184 23 3 50 7 62 9 24 5 89 14 148 21 22 3 83 8
135 11 52 4 97 8 98 10 6 4 483 -5 517 -10z"/>
<path d="M2345 5908 l0 -383 361 -3 360 -2 0 385 1 385 -44 0 -43 0 -2 -342
-3 -343 -110 -1 c-60 0 -112 3 -115 7 -3 4 -5 149 -4 323 l1 316 -42 0 -42 0
-1 -282 c0 -156 -1 -301 -1 -324 l-1 -41 -115 1 -115 1 0 30 c-1 16 -1 171 -1
343 l0 312 -42 0 -43 0 1 -382z"/>
<path d="M5034 6276 c-17 -5 -133 -151 -383 -485 -664 -884 -876 -1166 -888
-1181 -7 -8 -40 -53 -75 -100 -34 -47 -65 -87 -68 -90 -3 -3 -64 -84 -135
-180 -71 -96 -134 -178 -138 -181 -5 -3 -11 -25 -14 -47 -5 -38 -1 -47 48
-114 30 -40 59 -80 66 -88 7 -8 30 -40 52 -70 22 -30 50 -67 62 -83 12 -15 66
-87 120 -160 53 -72 101 -136 106 -142 5 -5 32 -41 61 -80 28 -38 55 -74 59
-80 5 -5 75 -100 157 -210 82 -110 161 -216 175 -235 246 -327 379 -504 518
-690 92 -124 173 -230 178 -236 6 -6 21 -27 35 -47 42 -61 42 -61 372 -62 165
0 301 2 303 5 2 3 -35 57 -81 120 -118 158 -482 648 -579 778 -44 59 -150 202
-236 317 -259 348 -669 898 -689 925 -114 151 -110 143 -93 170 16 26 124 171
133 180 4 4 59 77 122 165 4 6 20 26 36 45 15 19 59 78 97 130 39 52 75 102
82 110 7 8 26 33 42 55 26 36 446 596 491 655 10 14 134 178 274 365 140 187
258 345 263 350 5 6 19 26 33 45 13 19 27 37 30 40 15 14 69 88 72 100 2 11
-49 14 -290 14 -160 1 -304 -3 -318 -8z"/>
<path d="M2980 5145 l0 -285 -317 -2 -318 -3 -1 -30 c-1 -16 0 -34 2 -40 3 -6
132 -10 362 -10 l357 1 1 327 1 327 -44 0 -43 0 0 -285z"/>
<path d="M2549 4685 c-2 -1 -21 -5 -42 -8 -58 -8 -111 -48 -144 -109 -15 -29
-17 -68 -18 -365 -1 -183 1 -333 4 -334 21 -4 704 -3 709 1 4 3 8 22 10 43 l3
37 -140 0 -140 0 -3 298 -3 299 -27 41 c-34 50 -97 88 -159 95 -26 3 -49 4
-50 2z m86 -99 c66 -28 68 -37 70 -334 0 -147 -1 -275 -3 -284 -4 -16 -19 -18
-138 -18 l-134 0 -1 118 c-2 323 2 445 17 474 27 51 119 73 189 44z"/>
<path d="M2351 3750 c-8 -5 -8 -87 0 -93 2 -2 101 -68 219 -147 196 -130 302
-203 323 -220 4 -4 -118 -91 -272 -194 l-279 -187 3 -42 c1 -23 3 -44 4 -47 2
-7 686 -4 705 3 10 4 15 18 14 42 l-1 35 -116 0 c-64 1 -195 0 -291 0 -101 0
-171 3 -165 8 6 5 51 36 100 69 214 143 441 296 448 303 5 4 -118 92 -273 196
l-282 189 289 5 289 5 1 40 1 40 -355 0 c-195 0 -358 -2 -362 -5z"/>
<path d="M2346 2690 c-3 -8 -4 -26 -3 -40 l2 -25 363 -3 362 -2 -3 42 -4 43
-356 0 c-310 0 -358 -2 -361 -15z"/>
<path d="M2798 2520 c-42 -12 -84 -46 -110 -88 -22 -36 -23 -44 -25 -293 -1
-270 -6 -304 -51 -328 -43 -23 -116 -16 -147 14 -14 14 -26 27 -27 28 -1 1 -5
146 -8 322 l-5 320 -25 2 c-60 4 -57 22 -55 -325 1 -347 2 -352 63 -409 74
-69 202 -69 274 0 59 56 61 67 63 343 2 205 5 256 18 281 18 34 70 63 101 57
67 -12 79 -18 97 -47 18 -30 19 -54 19 -342 l0 -310 37 1 c21 1 41 2 44 3 3 1
5 142 4 314 -1 342 -3 354 -62 413 -47 47 -134 66 -205 44z"/>
</g>
</svg>
